<svg width="480" height="480" viewBox="0 0 480 480" fill="none" xmlns="http://www.w3.org/2000/svg">
<path d="M130 40H158L162 64V81H126V64L130 40Z" fill="#D9D9D9"/>
<path d="M68.8281 76.6274L88.6271 56.8284L108.426 70.9706L120.447 82.9914L94.9911 108.447L82.9703 96.4264L68.8281 76.6274Z" fill="#D9D9D9"/>
<path d="M199.821 56.8284L219.62 76.6274L205.478 96.4264L193.457 108.447L168.001 82.9914L180.022 70.9706L199.821 56.8284Z" fill="#D9D9D9"/>
<path d="M52 146V118L76 114H93V150H76L52 146Z" fill="#D9D9D9"/>
<path d="M158 225H130L126 201V184H162V201L158 225Z" fill="#D9D9D9"/>
<path d="M237 118V146L213 150H196V114H213L237 118Z" fill="#D9D9D9"/>
<path d="M88.6291 207.619L68.8301 187.82L82.9723 168.021L94.9931 156L120.449 181.456L108.428 193.477L88.6291 207.619Z" fill="#D9D9D9"/>
<path d="M219.617 187.82L199.818 207.619L180.019 193.477L167.998 181.456L193.454 156L205.475 168.021L219.617 187.82Z" fill="#D9D9D9"/>
<path d="M144 180C170.51 180 192 158.51 192 132C192 105.49 170.51 84 144 84C117.49 84 96 105.49 96 132C96 158.51 117.49 180 144 180Z" stroke="#D9D9D9" stroke-width="22"/>
<path d="M296 73H324L328 97V114H292V97L296 73Z" fill="#D9D9D9"/>
<path d="M234.828 109.627L254.627 89.8284L274.426 103.971L286.447 115.991L260.991 141.447L248.97 129.426L234.828 109.627Z" fill="#D9D9D9"/>
<path d="M365.821 89.8284L385.62 109.627L371.478 129.426L359.457 141.447L334.001 115.991L346.022 103.971L365.821 89.8284Z" fill="#D9D9D9"/>
<path d="M218 179V151L242 147H259V183H242L218 179Z" fill="#D9D9D9"/>
<path d="M324 258H296L292 234V217H328V234L324 258Z" fill="#D9D9D9"/>
<path d="M403 151V179L379 183H362V147H379L403 151Z" fill="#D9D9D9"/>
<path d="M254.629 240.619L234.83 220.82L248.972 201.021L260.993 189L286.449 214.456L274.428 226.477L254.629 240.619Z" fill="#D9D9D9"/>
<path d="M385.617 220.82L365.818 240.619L346.019 226.477L333.998 214.456L359.454 189L371.475 201.021L385.617 220.82Z" fill="#D9D9D9"/>
<path d="M310 213C336.51 213 358 191.51 358 165C358 138.49 336.51 117 310 117C283.49 117 262 138.49 262 165C262 191.51 283.49 213 310 213Z" stroke="#D9D9D9" stroke-width="22"/>
<path fill-rule="evenodd" clip-rule="evenodd" d="M0 420V480H335.999V420H0Z" fill="#2343F9"/>
<path fill-rule="evenodd" clip-rule="evenodd" d="M0 420H336V372H384V276H432V180H384V132H288V180H240V132H144V180H96.0003V228H48.0003V324H0.000283241V338C0.000283241 369.09 0 394 0 420Z" fill="#558336"/>
<path fill-rule="evenodd" clip-rule="evenodd" d="M240 228H192V276H240V228ZM384 228H336V276H384V228Z" fill="black"/>
<path fill-rule="evenodd" clip-rule="evenodd" d="M192 228H144V276H192V228ZM336 228H240V276H336V228Z" fill="white"/>
<path d="M192 324H384V372H192V324Z" fill="#994E35"/>
</svg>
